<mxfile host="app.diagrams.net" modified="2024-02-20T06:56:54.666Z" agent="Mozilla/5.0 (Macintosh; Intel Mac OS X 10_15_7) AppleWebKit/537.36 (KHTML, like Gecko) Chrome/121.0.0.0 Safari/537.36" version="22.1.18" etag="Zfnk-z3TkeKavXjO_sET" type="github">
  <diagram name="第 1 页" id="ztxmr_MxijtajsdTBf5S">
    <mxGraphModel>
      <root>
        <mxCell id="0" />
        <mxCell id="1" parent="0" />
      </root>
    </mxGraphModel>
  </diagram>
</mxfile>
